<svg height="512" viewBox="0 0 128 128" width="512" xmlns="http://www.w3.org/2000/svg"><g id="Circle_Grid" data-name="Circle Grid"><circle cx="64" cy="64" fill="#69b0ee" r="64"/></g><g id="icon"><rect fill="#62667c" height="79.179" rx="3.734" width="82" x="23" y="24.411"/><path d="m27.515 39.799h72.971v59.276h-72.971z" fill="#eeefee"/><circle cx="77.568" cy="32.105" fill="#2cbfae" r="2.194"/><circle cx="96.878" cy="32.105" fill="#ef5261" r="2.194"/><circle cx="87.223" cy="32.105" fill="#f6c863" r="2.194"/><rect fill="#828a9e" height="3.376" rx="1.688" width="36.375" x="30.625" y="30.417"/><g fill="#575b6d"><path d="m36.5 70.592 18.183-9.365v2.7l-15.323 7.68v.079l15.323 7.68v2.7l-18.183-9.357z"/><path d="m57.243 83.643 10.933-28.412h2.666l-10.973 28.412z"/><path d="m91.5 72.747-18.183 9.327v-2.7l15.44-7.68v-.079l-15.44-7.68v-2.7l18.183 9.319z"/></g></g></svg>